<?xml version="1.0" standalone="no"?>
<!DOCTYPE svg PUBLIC "-//W3C//DTD SVG 20010904//EN"
 "http://www.w3.org/TR/2001/REC-SVG-20010904/DTD/svg10.dtd">
<svg version="1.0" xmlns="http://www.w3.org/2000/svg"
 width="512.000000pt" height="512.000000pt" viewBox="0 0 512.000000 512.000000"
 preserveAspectRatio="xMidYMid meet">

<g transform="translate(0.000000,512.000000) scale(0.100000,-0.100000)"
fill="#000000" stroke="none">
<path d="M1654 5110 c-12 -4 -31 -21 -43 -36 -19 -24 -21 -39 -21 -170 l0
-144 29 -32 c28 -32 33 -33 115 -37 l86 -3 0 -637 0 -636 -617 -1250 c-339
-687 -636 -1284 -659 -1325 -131 -228 -143 -456 -34 -615 45 -65 132 -130 222
-165 160 -62 95 -60 1837 -60 1696 1 1654 0 1806 50 139 46 256 157 292 279
20 65 21 194 3 261 -18 69 -60 169 -93 225 -17 27 -335 622 -709 1320 l-678
1270 0 643 0 642 75 0 c91 0 131 17 151 65 19 47 19 253 0 300 -29 68 16 65
-908 64 -458 0 -843 -4 -854 -9z m1106 -1112 l0 -693 310 -581 c171 -320 310
-584 310 -588 0 -3 -387 -6 -859 -6 l-860 0 290 586 289 586 0 694 0 694 260
0 260 0 0 -692z"/>
</g>
</svg>
