<?xml version="1.0" standalone="no"?>
<!DOCTYPE svg PUBLIC "-//W3C//DTD SVG 20010904//EN"
 "http://www.w3.org/TR/2001/REC-SVG-20010904/DTD/svg10.dtd">
<svg version="1.0" xmlns="http://www.w3.org/2000/svg"
 width="512.000000pt" height="512.000000pt" viewBox="0 0 512.000000 512.000000"
 preserveAspectRatio="xMidYMid meet">

<g transform="translate(0.000000,512.000000) scale(0.100000,-0.100000)"
fill="#000000" stroke="none">
<path d="M1825 5108 c-46 -25 -55 -48 -55 -150 0 -119 21 -184 86 -264 95
-116 89 -77 89 -599 0 -504 -3 -534 -64 -710 -16 -44 -270 -669 -566 -1390
-296 -720 -546 -1339 -557 -1375 -73 -258 97 -542 362 -604 57 -14 242 -16
1441 -16 895 0 1395 4 1430 10 178 34 337 185 384 365 19 74 19 164 1 236 -8
31 -262 659 -565 1396 -302 737 -561 1378 -576 1424 -46 145 -55 255 -55 685
0 449 1 455 80 558 83 108 94 137 98 253 5 127 0 148 -41 173 -31 19 -54 20
-752 20 -504 -1 -726 -4 -740 -12z m1335 -212 c0 -12 -14 -41 -30 -62 -67 -86
-110 -159 -127 -212 -16 -52 -18 -102 -18 -532 1 -618 -7 -577 220 -1132 l122
-298 -760 0 c-718 0 -759 1 -754 18 2 9 57 144 121 300 214 518 207 487 213
1082 5 565 2 584 -118 736 -27 34 -52 76 -55 93 l-6 31 596 0 596 0 0 -24z
m638 -3381 l386 -940 1 -80 c0 -68 -5 -88 -27 -131 -15 -29 -49 -70 -75 -92
-90 -78 4 -73 -1543 -70 l-1375 3 -57 28 c-98 48 -168 157 -168 262 l0 45 100
0 c95 0 101 1 131 28 37 33 43 84 15 126 -21 34 -53 46 -117 46 -27 0 -49 2
-49 4 0 3 24 65 54 138 l54 133 104 5 c57 3 111 9 120 14 25 12 50 73 43 105
-10 49 -48 74 -115 79 -33 2 -60 8 -60 12 0 4 24 65 53 136 l54 129 104 5
c119 7 134 12 154 51 22 42 18 75 -13 110 -25 28 -37 33 -94 38 l-65 6 55 138
56 137 99 0 c54 0 108 5 120 11 78 40 75 150 -5 178 -17 6 -53 11 -81 11 -39
0 -48 3 -43 15 3 8 28 71 57 140 l51 125 845 -2 845 -3 386 -940z"/>
<path d="M3243 1953 c-31 -6 -73 -59 -73 -92 0 -23 332 -849 367 -916 52 -96
188 -64 185 43 0 23 -299 770 -360 900 -22 49 -69 74 -119 65z"/>
<path d="M3725 729 c-87 -50 -66 -173 31 -186 36 -5 46 -1 75 25 44 39 47 98
8 137 -29 29 -85 41 -114 24z"/>
</g>
</svg>
